<?xml version="1.0" encoding="iso-8859-1"?>
<!-- Generator: Adobe Illustrator 19.0.0, SVG Export Plug-In . SVG Version: 6.00 Build 0)  -->
<svg xmlns="http://www.w3.org/2000/svg" xmlns:xlink="http://www.w3.org/1999/xlink" version="1.1" id="Layer_1" x="0px" y="0px" viewBox="0 0 512 512" style="enable-background:new 0 0 512 512;" xml:space="preserve" width="512" height="512">
<g id="XMLID_2653_">
	<g id="XMLID_1686_">
		<path id="XMLID_845_" style="fill:#FFB954;" d="M176,30H96c-17.673,0-32,14.327-32,32v408c0,17.673,14.327,32,32,32h320    c17.673,0,32-14.327,32-32V62c0-17.673-14.327-32-32-32h-80"/>
		<polygon id="XMLID_1734_" style="fill:#FFFFFF;" points="340.25,70 408.127,70 408.127,462 104.127,462 104.127,70 174.5,70   "/>
		<path id="XMLID_836_" style="fill:#FFFFFF;" d="M320,90H192c-8.837,0-16-7.163-16-16V26c0-8.837,7.163-16,16-16h128    c8.837,0,16,7.163,16,16v48C336,82.837,328.837,90,320,90z"/>
		<circle id="XMLID_1255_" style="fill:#A0E557;" cx="256" cy="218" r="88"/>
	</g>
	<g id="XMLID_467_">
		<path id="XMLID_470_" d="M416,20h-70.707C342.577,8.548,332.271,0,320,0H192c-12.271,0-22.577,8.548-25.293,20H96    c-23.159,0-42,18.841-42,42v408c0,23.159,18.841,42,42,42h320c23.159,0,42-18.841,42-42V250c0-5.523-4.478-10-10-10    s-10,4.477-10,10v220c0,12.131-9.869,22-22,22H96c-12.131,0-22-9.869-22-22V62c0-12.131,9.869-22,22-22h70v20h-61.873    c-5.522,0-10,4.477-10,10v392c0,5.523,4.478,10,10,10h304c5.522,0,10-4.477,10-10V70c0-5.523-4.478-10-10-10H346V40h70    c12.131,0,22,9.869,22,22v108c0,5.523,4.478,10,10,10s10-4.477,10-10V62C458,38.841,439.159,20,416,20z M186,26    c0-3.309,2.691-6,6-6h128c3.309,0,6,2.691,6,6v48c0,3.309-2.691,6-6,6H192c-3.309,0-6-2.691-6-6V26z M398.127,452h-284V80h52.58    c2.717,11.452,13.022,20,25.293,20h128c12.271,0,22.577-8.548,25.293-20h52.833V452z"/>
		<path id="XMLID_892_" d="M448,200c-2.63,0-5.21,1.07-7.07,2.93c-1.86,1.86-2.93,4.44-2.93,7.07c0,2.63,1.069,5.21,2.93,7.07    S445.37,220,448,220s5.21-1.07,7.069-2.93c1.86-1.86,2.931-4.44,2.931-7.07c0-2.63-1.07-5.21-2.931-7.07    C453.21,201.07,450.63,200,448,200z"/>
		<path id="XMLID_976_" d="M184.127,392h-30v-30c0-5.523-4.478-10-10-10s-10,4.477-10,10v40c0,5.523,4.478,10,10,10h40    c5.522,0,10-4.477,10-10S189.649,392,184.127,392z"/>
		<path id="XMLID_977_" d="M239,392c-2.63,0-5.21,1.07-7.07,2.93c-1.86,1.86-2.93,4.44-2.93,7.07c0,2.63,1.069,5.21,2.93,7.07    S236.37,412,239,412s5.21-1.07,7.069-2.93c1.86-1.86,2.931-4.44,2.931-7.07c0-2.63-1.07-5.21-2.931-7.07    C244.21,393.07,241.63,392,239,392z"/>
		<path id="XMLID_1013_" d="M269,402c0,5.523,4.478,10,10,10h89.127c5.522,0,10-4.477,10-10s-4.478-10-10-10H279    C273.478,392,269,396.477,269,402z"/>
		<path id="XMLID_1014_" d="M239,352c-5.522,0-10,4.477-10,10s4.478,10,10,10h60c5.522,0,10-4.477,10-10s-4.478-10-10-10H239z"/>
		<path id="XMLID_1041_" d="M256,316c54.037,0,98-43.962,98-98s-43.963-98-98-98s-98,43.962-98,98S201.963,316,256,316z M256,140    c43.01,0,78,34.991,78,78s-34.99,78-78,78s-78-34.991-78-78S212.99,140,256,140z"/>
		<path id="XMLID_1051_" d="M236.885,247.165c1.953,1.953,4.512,2.929,7.071,2.929s5.118-0.977,7.071-2.929l42.26-42.26    c3.905-3.905,3.905-10.237,0-14.142c-3.906-3.905-10.236-3.905-14.143,0l-35.188,35.189l-14.454-14.454    c-3.906-3.905-10.236-3.905-14.143,0c-3.905,3.905-3.905,10.237,0,14.142L236.885,247.165z"/>
		<path id="XMLID_1070_" d="M219.921,60h72.412c5.522,0,10-4.477,10-10s-4.478-10-10-10h-72.412c-5.522,0-10,4.477-10,10    S214.398,60,219.921,60z"/>
	</g>
</g>















</svg>
