<?xml version="1.0" encoding="utf-8"?>
<svg width="1228px" height="2489px" viewBox="0 0 1228 2489" version="1.1" xmlns:xlink="http://www.w3.org/1999/xlink" xmlns="http://www.w3.org/2000/svg">
  <desc>Created with Lunacy</desc>
  <defs>
    <filter filterUnits="userSpaceOnUse" color-interpolation-filters="sRGB" id="filter_1">
      <feFlood flood-opacity="0" result="BackgroundImageFix" />
      <feColorMatrix in="SourceAlpha" type="matrix" values="0 0 0 0 0 0 0 0 0 0 0 0 0 0 0 0 0 0 127 0" />
      <feOffset dx="153" dy="128" />
      <feGaussianBlur stdDeviation="76.5" />
      <feColorMatrix type="matrix" values="0 0 0 0 0.015686275 0 0 0 0 0.23137255 0 0 0 0 0.33333334 0 0 0 0.050980393 0" />
      <feBlend mode="normal" in2="BackgroundImageFix" result="effect0_dropShadow" />
      <feBlend mode="normal" in="SourceGraphic" in2="effect0_dropShadow" result="shape" />
    </filter>
    <filter filterUnits="userSpaceOnUse" color-interpolation-filters="sRGB" id="filter_2">
      <feFlood flood-opacity="0" result="BackgroundImageFix" />
      <feColorMatrix in="SourceAlpha" type="matrix" values="0 0 0 0 0 0 0 0 0 0 0 0 0 0 0 0 0 0 127 0" />
      <feOffset dx="0" dy="0" />
      <feGaussianBlur stdDeviation="1" />
      <feColorMatrix type="matrix" values="0 0 0 0 0 0 0 0 0 0 0 0 0 0 0 0 0 0 0.039215688 0" />
      <feBlend mode="normal" in2="BackgroundImageFix" result="effect0_dropShadow" />
      <feBlend mode="normal" in="SourceGraphic" in2="effect0_dropShadow" result="shape" />
    </filter>
    <path d="M777.702 87.7765C822.887 88.4125 842.725 48.3337 843.253 20.354C843.253 5.51272 847.531 0.636061 864.255 0.636061C880.978 0.636061 905.638 0.636061 960.998 0.636061C1016.36 0.636061 1080 26.0785 1080 124.032C1080 221.985 1080 2133.99 1080 2212.86C1080 2291.73 1038 2336.25 944.443 2336.25C850.89 2336.25 220.813 2336.25 125.362 2336.25C29.9116 2336.25 1.80095e-15 2278.37 0 2214.77C0 2151.16 2.2692e-15 197.179 0 117.035C0 36.8916 57.2775 1.41621e-14 110.737 0C164.196 0 203.017 4.04632e-15 218.291 0C233.565 0 236.747 8.90486 236.747 19.0818C236.747 29.2588 242.237 86.7133 305.48 87.1404C358.939 87.1404 717.242 87.7765 777.702 87.7765Z" id="path_1" />
    <path d="M0.000366211 0.00012207L59.8053 0.00012207L59.8053 59.7899L0.000366211 59.7899L0.000366211 0.00012207Z" transform="translate(-0.00036621094 -9.1552734E-05)" id="path_2" />
    <rect width="1228" height="2489" id="artboard_1" />
    <clipPath id="clip_1">
      <use xlink:href="#artboard_1" clip-rule="evenodd" />
    </clipPath>
    <clipPath id="mask_1">
      <use xlink:href="#path_1" />
    </clipPath>
    <clipPath id="mask_2">
      <use xlink:href="#path_2" />
    </clipPath>
  </defs>
  <g id="iPhoneX" clip-path="url(#clip_1)">
    <use xlink:href="#artboard_1" stroke="none" fill="#F7F8FA" />
    <g filter="url(#filter_1)">
      <path d="M224.587 0C377.28 0 876.104 1.43985e-13 1004.61 1.43985e-13C1133.11 1.43985e-13 1233 51.2833 1233 224.53C1233 499.308 1233 2140.71 1233 2233.21C1233 2325.71 1228.55 2486.36 1016.05 2486.36C803.549 2486.36 286.083 2486.36 193.411 2486.36C100.739 2486.36 0 2430.5 0 2272.01C4.81248e-15 2113.53 4.92535e-15 386.725 0 224.53C0 39.6269 115.539 0 224.587 0Z" transform="translate(2 5)" id="body" fill="#FFFFFF" stroke="none" />
    </g>
    <g id="drop-your-design-here" transform="translate(75.165634 97.22888)">
      <g filter="url(#filter_2)">
        <path d="M777.702 87.7765C822.887 88.4125 842.725 48.3337 843.253 20.354C843.253 5.51272 847.531 0.636061 864.255 0.636061C880.978 0.636061 905.638 0.636061 960.998 0.636061C1016.36 0.636061 1080 26.0785 1080 124.032C1080 221.985 1080 2133.99 1080 2212.86C1080 2291.73 1038 2336.25 944.443 2336.25C850.89 2336.25 220.813 2336.25 125.362 2336.25C29.9116 2336.25 1.80095e-15 2278.37 0 2214.77C0 2151.16 2.2692e-15 197.179 0 117.035C0 36.8916 57.2775 1.41621e-14 110.737 0C164.196 0 203.017 4.04632e-15 218.291 0C233.565 0 236.747 8.90486 236.747 19.0818C236.747 29.2588 242.237 86.7133 305.48 87.1404C358.939 87.1404 717.242 87.7765 777.702 87.7765Z" id="screen" fill="#F7F8FA" stroke="#000000" stroke-width="1" />
      </g>
      <g clip-path="url(#mask_1)">
        <g id="Delete-this" transform="translate(192.83437 843.7711)">
          <g id="Group-3" transform="translate(1 0)">
            <path d="M0 0L41 0L41 5L0 5L0 0Z" id="Rectangle-21" fill="#D8D8D8" stroke="none" />
            <path d="M0 0L41 0L41 5L0 5L0 0Z" transform="matrix(1.1924881E-08 1 -1 1.1924881E-08 5 3)" id="Rectangle-21" fill="#D8D8D8" stroke="none" />
          </g>
          <g id="Group-3-Copy-2" transform="matrix(-1 0 0 1 699.5 0)">
            <path d="M0 0L41 0L41 5L0 5L0 0Z" id="Rectangle-21" fill="#D8D8D8" stroke="none" />
            <path d="M0 0L41 0L41 5L0 5L0 0Z" transform="matrix(1.1924881E-08 1 -1 1.1924881E-08 5 3)" id="Rectangle-21" fill="#D8D8D8" stroke="none" />
          </g>
          <g id="Group-3-Copy" transform="matrix(-4.371139E-08 -1 1 -4.371139E-08 0 616)">
            <path d="M0 0L41 0L41 5L0 5L0 0Z" id="Rectangle-21" fill="#D8D8D8" stroke="none" />
            <path d="M0 0L41 0L41 5L0 5L0 0Z" transform="matrix(1.1924881E-08 1 -1 1.1924881E-08 5 3)" id="Rectangle-21" fill="#D8D8D8" stroke="none" />
          </g>
          <g id="Group-3-Copy-3" transform="matrix(4.371139E-08 -1 -1 -4.371139E-08 701 616)">
            <path d="M0 0L41 0L41 5L0 5L0 0Z" id="Rectangle-21" fill="#D8D8D8" stroke="none" />
            <path d="M0 0L41 0L41 5L0 5L0 0Z" transform="matrix(1.1924881E-08 1 -1 1.1924881E-08 5 3)" id="Rectangle-21" fill="#D8D8D8" stroke="none" />
          </g>
        </g>
      </g>
    </g>
    <path d="M10.1796 0L384.279 0C389.901 0 394.458 4.55639 394.458 10.177C394.458 15.7976 389.901 20.354 384.279 20.354L10.1796 20.354C4.55755 20.354 0 15.7976 0 10.177C0 4.55639 4.55755 0 10.1796 0Z" transform="translate(420.63464 2392.7744)" id="bottom" fill="#F0F3F5" stroke="none" />
    <g id="black" transform="translate(172.50769 97.86499)" opacity="0.4">
      <g id="power_black" transform="translate(871.62537 50.884888)">
        <path d="M54.7152 0L8.90712 0C3.98785 0 0 3.98684 0 8.90486L0 24.1703C0 29.0884 3.98785 33.0752 8.90712 33.0752L54.7152 33.0752C59.6344 33.0752 63.6223 29.0884 63.6223 24.1703L63.6223 8.90486C63.6223 3.98684 59.6344 0 54.7152 0ZM2.54492 8.90486C2.54492 5.39199 5.39339 2.54425 8.90715 2.54425L54.7152 2.54425C58.229 2.54425 61.0774 5.39199 61.0774 8.90486L61.0774 24.1703C61.0774 27.6832 58.229 30.531 54.7152 30.531L8.90715 30.531C5.39339 30.531 2.54492 27.6832 2.54492 24.1703L2.54492 8.90486Z" id="Rectangle-3" fill="#000000" fill-rule="evenodd" stroke="none" />
        <path d="M3.81519 0L49.6275 0Q49.815 0 50.0015 0.0183712Q50.188 0.0367424 50.3718 0.0733078Q50.5557 0.109873 50.735 0.164281Q50.9144 0.218688 51.0875 0.290414Q51.2607 0.36214 51.426 0.450493Q51.5913 0.538846 51.7471 0.642975Q51.903 0.747105 52.0479 0.866008Q52.1927 0.984912 52.3253 1.11744Q52.4578 1.24997 52.5767 1.39486Q52.6956 1.53974 52.7997 1.69558Q52.9039 1.85142 52.9922 2.01672Q53.0806 2.18202 53.1523 2.35518Q53.224 2.52834 53.2784 2.7077Q53.3328 2.88706 53.3694 3.07088Q53.406 3.25471 53.4244 3.44124Q53.4427 3.62776 53.4427 3.81519L53.4427 19.083Q53.4427 19.2705 53.4244 19.457Q53.406 19.6435 53.3694 19.8273Q53.3328 20.0112 53.2784 20.1905Q53.224 20.3699 53.1523 20.543Q53.0806 20.7162 52.9922 20.8815Q52.9039 21.0468 52.7997 21.2026Q52.6956 21.3585 52.5767 21.5033Q52.4578 21.6482 52.3253 21.7808Q52.1927 21.9133 52.0479 22.0322Q51.903 22.1511 51.7471 22.2552Q51.5913 22.3594 51.426 22.4477Q51.2607 22.5361 51.0875 22.6078Q50.9144 22.6795 50.735 22.7339Q50.5557 22.7883 50.3718 22.8249Q50.188 22.8615 50.0015 22.8798Q49.815 22.8982 49.6275 22.8982L3.81519 22.8982Q3.62776 22.8982 3.44124 22.8798Q3.25471 22.8615 3.07088 22.8249Q2.88706 22.7883 2.7077 22.7339Q2.52834 22.6795 2.35518 22.6078Q2.18202 22.5361 2.01672 22.4477Q1.85142 22.3594 1.69558 22.2552Q1.53974 22.1511 1.39486 22.0322Q1.24997 21.9133 1.11744 21.7808Q0.984912 21.6482 0.866008 21.5033Q0.747105 21.3585 0.642975 21.2026Q0.538846 21.0468 0.450493 20.8815Q0.36214 20.7162 0.290414 20.543Q0.218688 20.3699 0.164281 20.1905Q0.109873 20.0112 0.0733078 19.8273Q0.0367424 19.6435 0.0183712 19.457Q0 19.2705 0 19.083L0 3.81519Q0 3.62776 0.0183712 3.44124Q0.0367424 3.25471 0.0733078 3.07088Q0.109873 2.88706 0.164281 2.7077Q0.218688 2.52834 0.290414 2.35518Q0.36214 2.18202 0.450493 2.01672Q0.538846 1.85142 0.642975 1.69558Q0.747105 1.53974 0.866008 1.39486Q0.984912 1.24997 1.11744 1.11744Q1.24997 0.984912 1.39486 0.866008Q1.53974 0.747105 1.69558 0.642975Q1.85142 0.538846 2.01672 0.450493Q2.18202 0.36214 2.35518 0.290414Q2.52834 0.218688 2.7077 0.164281Q2.88706 0.109873 3.07088 0.0733078Q3.25471 0.0367424 3.44124 0.0183712Q3.62776 0 3.81519 0Z" transform="translate(5.0898438 5.088501)" id="Rectangle-3" fill="#000000" stroke="none" />
        <path d="M3.14713e-05 9.85634C2.1953 9.29146 3.81738 7.29919 3.81738 4.92815C3.81738 2.55711 2.1953 0.564838 3.14713e-05 -3.34676e-05L3.14713e-05 9.85634Z" transform="translate(67.439575 11.609436)" id="Combined-Shape" fill="#000000" fill-rule="evenodd" stroke="none" />
      </g>
      <g id="wifi_black" transform="matrix(0.70710677 -0.70710677 0.70710677 0.70710677 794.0116 42.283142)">
        <path d="M0.000366211 0.00012207L59.8053 0.00012207L59.8053 59.7899L0.000366211 59.7899L0.000366211 0.00012207Z" transform="translate(-0.00036621094 -9.1552734E-05)" id="Mask" fill="none" stroke="none" />
        <g clip-path="url(#mask_2)">
          <g id="Group" transform="translate(-33.08374 26.71463)">
            <path d="M11.4521 22.8982C17.7769 22.8982 22.9041 17.7723 22.9041 11.4491C22.9041 5.12594 17.7769 0 11.4521 0C5.12736 0 0.00012207 5.12594 0.00012207 11.4491C0.00012207 17.7723 5.12736 22.8982 11.4521 22.8982Z" transform="translate(21.63147 21.625977)" id="Oval-3" fill="#000000" stroke="none" />
            <path d="M0.00012207 33.0751C0.00012207 51.342 14.8122 66.1503 33.0837 66.1503C51.3553 66.1503 66.1673 51.342 66.1673 33.0751C66.1673 14.8081 51.3553 -0.00012207 33.0837 -0.00012207C14.8122 -0.00012207 0.00012207 14.8081 0.00012207 33.0751ZM58.5325 33.0751C58.5325 47.1266 47.1386 58.5176 33.0836 58.5176C19.0285 58.5176 7.63464 47.1266 7.63464 33.0751C7.63464 19.0236 19.0285 7.63266 33.0836 7.63266C47.1386 7.63266 58.5325 19.0236 58.5325 33.0751Z" transform="translate(0.00012207031 0)" id="Oval-3" fill="#000000" fill-rule="evenodd" stroke="none" />
            <path d="M0.000244141 21.6261C0.000244141 33.5699 9.68503 43.2522 21.6318 43.2522C33.5786 43.2522 43.2634 33.5699 43.2634 21.6261C43.2634 9.68239 33.5786 6.10352e-05 21.6318 6.10352e-05C9.68503 6.10352e-05 0.000244141 9.68239 0.000244141 21.6261ZM36.9012 21.6262C36.9012 30.0571 30.0649 36.8917 21.6319 36.8917C13.1989 36.8917 6.36255 30.0571 6.36255 21.6262C6.36255 13.1953 13.1989 6.36072 21.6319 6.36072C30.0649 6.36072 36.9012 13.1953 36.9012 21.6262Z" transform="translate(11.451904 11.448975)" id="Oval-3" fill="#000000" fill-rule="evenodd" stroke="none" />
          </g>
        </g>
      </g>
      <g id="singal_black" transform="translate(746.9257 52.157043)">
        <path d="M49.6253 0L44.5356 0C43.13 0 41.9907 1.1391 41.9907 2.54425L41.9907 29.2588C41.9907 30.664 43.13 31.8031 44.5356 31.8031L49.6253 31.8031C51.0308 31.8031 52.1702 30.664 52.1702 29.2588L52.1702 2.54425C52.1702 1.1391 51.0308 0 49.6253 0ZM30.5387 6.3606L35.6285 6.3606C37.034 6.3606 38.1734 7.49969 38.1734 8.90484L38.1734 29.2588C38.1734 30.664 37.034 31.8031 35.6285 31.8031L30.5387 31.8031C29.1332 31.8031 27.9938 30.664 27.9938 29.2588L27.9938 8.90484C27.9938 7.49969 29.1332 6.3606 30.5387 6.3606ZM21.6316 12.7213L16.5418 12.7213C15.1363 12.7213 13.9969 13.8603 13.9969 15.2655L13.9969 29.2588C13.9969 30.664 15.1363 31.8031 16.5418 31.8031L21.6316 31.8031C23.0371 31.8031 24.1765 30.664 24.1765 29.2588L24.1765 15.2655C24.1765 13.8603 23.0371 12.7213 21.6316 12.7213ZM2.54489 19.0818L7.63468 19.0818C9.04018 19.0818 10.1796 20.2209 10.1796 21.6261L10.1796 29.2588C10.1796 30.664 9.04018 31.8031 7.63468 31.8031L2.54489 31.8031C1.13939 31.8031 0 30.664 0 29.2588L0 21.6261C0 20.2209 1.13939 19.0818 2.54489 19.0818Z" id="Combined-Shape" fill="#000000" fill-rule="evenodd" stroke="none" />
      </g>
      <g id="Time_black" transform="translate(0 36.89154)">
        <g id="9-41">
          <path d="M74.4381 46.5325L78.1052 46.5325L78.1052 13.752L76.7188 13.752Q75.8691 14.4899 74.7064 15.2613Q73.5436 16.0328 72.2356 16.7371Q70.9275 17.4415 69.5747 18.0117Q68.2218 18.5819 67.0144 18.9173L67.0144 22.6291Q68.0877 22.3608 69.2169 21.8912Q70.3461 21.4216 71.3635 20.885Q72.3809 20.3483 73.1971 19.8005Q74.0132 19.2527 74.4381 18.8278L74.4381 46.5325ZM22.4499 28.577Q22.4499 32.982 21.5779 36.4143Q20.7058 39.8467 19.0288 42.2281Q17.3517 44.6095 14.9368 45.8505Q12.5219 47.0915 9.43613 47.0915Q6.26094 47.0915 3.846 45.9735L3.846 42.4629Q6.5069 43.961 9.52557 43.961Q11.6945 43.961 13.4051 43.0666Q15.1157 42.1722 16.3008 40.4616Q17.4859 38.751 18.112 36.2466Q18.7381 33.7423 18.7381 30.5L18.6486 30.5Q16.5915 34.6367 11.4933 34.6367Q9.43613 34.6367 7.71437 33.91Q5.99261 33.1833 4.74042 31.8528Q3.48824 30.5224 2.79506 28.6888Q2.10189 26.8552 2.10189 24.6416Q2.10189 22.2713 2.87332 20.3036Q3.64476 18.3359 5.01993 16.916Q6.3951 15.4961 8.28456 14.7135Q10.174 13.9309 12.4101 13.9309Q14.825 13.9309 16.6921 14.9036Q18.5592 15.8762 19.8338 17.7433Q21.1083 19.6104 21.7791 22.3384Q22.4499 25.0664 22.4499 28.577ZM56.2366 14.4675L56.2366 35.6429L60.351 35.6429L60.351 38.997L56.2366 38.997L56.2366 46.5325L52.6142 46.5325L52.6142 38.997L37.5433 38.997L37.5433 35.8218Q39.6451 33.4516 41.7918 30.7571Q43.9384 28.0627 45.8949 25.29Q47.8514 22.5173 49.5173 19.7558Q51.1832 16.9943 52.3235 14.4675L56.2366 14.4675ZM18.4921 25.29Q18.4921 23.4341 18.0114 21.9136Q17.5306 20.3931 16.6809 19.3086Q15.8312 18.2241 14.6573 17.6315Q13.4834 17.039 12.097 17.039Q10.7778 17.039 9.63737 17.5645Q8.49699 18.0899 7.65847 19.0402Q6.81995 19.9906 6.3392 21.2987Q5.85845 22.6067 5.85845 24.1496Q5.85845 25.849 6.31684 27.1906Q6.77523 28.5323 7.62493 29.4602Q8.47462 30.3882 9.67091 30.8801Q10.8672 31.3721 12.3206 31.3721Q13.5952 31.3721 14.7244 30.8913Q15.8536 30.4106 16.6921 29.5944Q17.5306 28.7782 18.0114 27.6714Q18.4921 26.5646 18.4921 25.29ZM41.68 35.6429L52.6142 35.6429L52.6142 19.9459Q50.9372 22.8751 49.439 25.1782Q47.9409 27.4813 46.5881 29.3596Q45.2353 31.2379 44.0054 32.7584Q42.7756 34.2789 41.68 35.6429Z" />
        </g>
        <path d="M3.81734 7.63274C5.92559 7.63274 7.63468 5.92409 7.63468 3.81637C7.63468 1.70865 5.92559 0 3.81734 0C1.70908 0 0 1.70865 0 3.81637C0 5.92409 1.70908 7.63274 3.81734 7.63274Z" transform="translate(30.538696 20.353943)" id="Oval-2" fill="#000000" stroke="none" />
        <path d="M3.81734 7.63274C5.92559 7.63274 7.63468 5.92409 7.63468 3.81637C7.63468 1.70865 5.92559 0 3.81734 0C1.70908 0 0 1.70865 0 3.81637C0 5.92409 1.70908 7.63274 3.81734 7.63274Z" transform="translate(30.538696 35.619446)" id="Oval-2-Copy" fill="#000000" stroke="none" />
      </g>
    </g>
    <g id="Top" transform="translate(538.97217 105.49768)">
      <path d="M10.8158 0L140.605 0C146.579 -1.12987e-15 151.421 4.84116 151.421 10.813C151.421 16.7849 146.579 21.6261 140.605 21.6261L10.8158 21.6261C4.84239 21.6261 7.3153e-16 16.7849 0 10.813C-7.3153e-16 4.84116 4.84239 1.12987e-15 10.8158 0Z" transform="translate(0 7.6327515)" id="receiver" fill="#F0F3F5" stroke="none" />
      <path d="M17.8142 35.6194C27.6528 35.6194 35.6285 27.6458 35.6285 17.8097C35.6285 7.97368 27.6528 0 17.8142 0C7.97571 0 0 7.97368 0 17.8097C0 27.6458 7.97571 35.6194 17.8142 35.6194Z" transform="translate(190.86688 0)" id="camera" fill="#F0F3F5" stroke="none" />
    </g>
  </g>
</svg>